<?xml version="1.0" encoding="iso-8859-1"?>
<!-- Generator: Adobe Illustrator 16.0.0, SVG Export Plug-In . SVG Version: 6.00 Build 0)  -->
<!DOCTYPE svg PUBLIC "-//W3C//DTD SVG 1.1//EN" "http://www.w3.org/Graphics/SVG/1.1/DTD/svg11.dtd">
<svg version="1.1" id="Capa_1" xmlns="http://www.w3.org/2000/svg" xmlns:xlink="http://www.w3.org/1999/xlink" x="0px" y="0px" width="100%" height="100%" viewBox="0 0 450 230">
  <!-- <svg class="bar-graph" viewBox="0 0 500 300"> -->
  <g transform="translate(26,10)">
    <g class="y-axis">
      <g transform="translate(0,200)" style="opacity: 1;"><line x2="-6" y2="0"></line>
      <text class="y-axis__text" dy=".32em" x="-2" y="0" style="text-anchor: end;">0</text>
    </g>
    <g transform="translate(0,160)" style="opacity: 1;"><line x2="-6" y2="0"></line>
    <text class="y-axis__text" dy=".32em" x="-2" y="0" style="text-anchor: end;">100</text>
  </g>
  <g transform="translate(0,120)" style="opacity: 1;"><line x2="-6" y2="0"></line>
  <text class="y-axis__text" dy=".32em" x="-2" y="0" style="text-anchor: end;">200</text>
</g>
<g transform="translate(0,80)" style="opacity: 1;"><line x2="-6" y2="0"></line>
<text class="y-axis__text" dy=".32em" x="-2" y="0" style="text-anchor: end;">300</text>
</g>
<g transform="translate(0,40)" style="opacity: 1;"><line x2="-6" y2="0"></line>
<text class="y-axis__text" dy=".32em" x="-2" y="0" style="text-anchor: end;">400</text>
</g>
<g transform="translate(0,0)" style="opacity: 1;">
  <text class="y-axis__text" dy=".32em" x="-2" y="7" style="text-anchor: end;">500</text>
</g>  
</g>
<g class="x-axis" transform="translate(0,195)">
  <g transform="translate(20,0)" style="opacity: 1;">
    <text class="x-axis__text" dy=".71em" y="9" x="0" style="text-anchor: middle;">S</text>
  </g>
  <g transform="translate(50,0)" style="opacity: 1;"><line y2="6" x2="0"></line>
  <text class="x-axis__text" dy=".71em" y="9" x="0" style="text-anchor: middle;">M</text>
</g>
<g transform="translate(80,0)" style="opacity: 1;"><line y2="6" x2="0"></line>
<text class="x-axis__text" dy=".71em" y="9" x="0" style="text-anchor: middle;">T</text>
</g>
<g transform="translate(110,0)" style="opacity: 1;"><line y2="6" x2="0"></line>
<text class="x-axis__text" dy=".71em" y="9" x="0" style="text-anchor: middle;">W</text>
</g>
<g transform="translate(140,0)" style="opacity: 1;"><line y2="6" x2="0"></line>
<text class="x-axis__text" dy=".71em" y="9" x="0" style="text-anchor: middle;">R</text>
</g>
<g transform="translate(170,0)" style="opacity: 1;"><line y2="6" x2="0"></line>
<text class="x-axis__text" dy=".71em" y="9" x="0" style="text-anchor: middle;">F</text>
</g>
<g transform="translate(200,0)" style="opacity: 1;"><line y2="6" x2="0"></line>
<text class="x-axis__text" dy=".71em" y="9" x="0" style="text-anchor: middle;">S</text>
</g>
<g transform="translate(230,0)" style="opacity: 1;"><line y2="6" x2="0"></line>
<text class="x-axis__text" dy=".71em" y="9" x="0" style="text-anchor: middle;">S</text>
</g>
<g transform="translate(260,0)" style="opacity: 1;"><line y2="6" x2="0"></line>
<text class="x-axis__text" dy=".71em" y="9" x="0" style="text-anchor: middle;">M</text>
</g>
<g transform="translate(290,0)" style="opacity: 1;"><line y2="6" x2="0"></line>
<text class="x-axis__text" dy=".71em" y="9" x="0" style="text-anchor: middle;">T</text>
</g>
<g transform="translate(320,0)" style="opacity: 1;"><line y2="6" x2="0"></line>
<text class="x-axis__text" dy=".71em" y="9" x="0" style="text-anchor: middle;">W</text>
</g>
<g transform="translate(350,0)" style="opacity: 1;"><line y2="6" x2="0"></line>
<text class="x-axis__text" dy=".71em" y="9" x="0" style="text-anchor: middle;">R</text>
</g>
<g transform="translate(380,0)" style="opacity: 1;"><line y2="6" x2="0"></line>
<text class="x-axis__text" dy=".71em" y="9" x="0" style="text-anchor: middle;">F</text>
</g>
<g transform="translate(410,0)" style="opacity: 1;"><line y2="6" x2="0"></line>
<text class="x-axis__text" dy=".71em" y="9" x="0" style="text-anchor: middle;">S</text>
</g>
</g>
<g>
  <rect class="bar bar--empty" x="10" width="20" y="0" height="200" fill="#CCCDCE"></rect>
  <rect class="bar" x="10" width="20" y="175" height="25" fill="#66B9BE"></rect>
</g>
<g>
  <rect class="bar bar--empty" x="40" width="20" y="0" height="200" fill="#CCCDCE"></rect>
  <rect class="bar" x="40" width="20" y="125" height="75" fill="#66B9BE"></rect>
</g>
<g>
  <rect class="bar bar--empty" x="70" width="20" y="0" height="200" fill="#CCCDCE"></rect>
  <rect class="bar" x="70" width="20" y="105" height="95" fill="#66B9BE"></rect>
</g>
<g>
  <rect class="bar bar--empty" x="100" width="20" y="0" height="200" fill="#CCCDCE"></rect>
  <rect class="bar" x="100" width="20" y="95" height="105" fill="#66B9BE"></rect>
</g>
<g>
  <rect class="bar bar--empty" x="130" width="20" y="0" height="200" fill="#CCCDCE"></rect>
  <rect class="bar" x="130" width="20" y="80" height="120" fill="#66B9BE"></rect>
</g>
<g>
  <rect class="bar bar--empty" x="160" width="20" y="0" height="200" fill="#CCCDCE"></rect>
  <rect class="bar" x="160" width="20" y="80" height="120" fill="#66B9BE"></rect>
</g>
<g>
  <rect class="bar bar--empty" x="190" width="20" y="0" height="200" fill="#CCCDCE"></rect>
  <rect class="bar" x="190" width="20" y="80" height="120" fill="#66B9BE"></rect>
</g>
<g>
  <rect class="bar bar--empty" x="220" width="20" y="0" height="200" fill="#CCCDCE"></rect>
  <rect class="bar" x="220" width="20" y="80" height="120" fill="#66B9BE"></rect>
</g>
<g>
  <rect class="bar bar--empty" x="250" width="20" y="0" height="200" fill="#CCCDCE"></rect>
  <rect class="bar" x="250" width="20" y="80" height="120" fill="#66B9BE"></rect>
</g>
<g>
  <rect class="bar bar--empty" x="280" width="20" y="0" height="200" fill="#CCCDCE"></rect>
  <rect class="bar" x="280" width="20" y="80" height="120" fill="#66B9BE"></rect>
</g>
<g>
  <rect class="bar bar--empty" x="310" width="20" y="0" height="200" fill="#CCCDCE"></rect>
  <rect class="bar" x="310" width="20" y="80" height="120" fill="#66B9BE"></rect>
</g>
<g>
  <rect class="bar bar--empty" x="340" width="20" y="0" height="200" fill="#CCCDCE"></rect>
  <rect class="bar" x="340" width="20" y="80" height="120" fill="#66B9BE"></rect>
</g>
<g>
  <rect class="bar bar--empty" x="370" width="20" y="0" height="200" fill="#CCCDCE"></rect>
  <rect class="bar" x="370" width="20" y="80" height="120" fill="#66B9BE"></rect>
</g>
<g>
  <rect class="bar bar--empty" x="400" width="20" y="0" height="200" fill="#CCCDCE"></rect>
  <rect class="bar" x="400" width="20" y="80" height="120" fill="#66B9BE"></rect>
</g>
</g>
</svg>