<?xml version="1.0" encoding="iso-8859-1"?>
<!-- Generator: Adobe Illustrator 19.0.0, SVG Export Plug-In . SVG Version: 6.00 Build 0)  -->
<svg xmlns="http://www.w3.org/2000/svg" xmlns:xlink="http://www.w3.org/1999/xlink" version="1.1" id="Capa_1" x="0px" y="0px" viewBox="0 0 512 512" style="enable-background:new 0 0 512 512;" xml:space="preserve" width="512px" height="512px">
<g>
	<g>
		<path d="M15,16C6.709,16,0,22.709,0,31v390c0,8.291,6.709,15,15,15h15V91c0-24.814,20.186-45,45-45h168.518    c2.272-11.153,7.231-21.237,13.865-30C171.823,16,98.459,16,15,16z" fill="#8891a1"/>
	</g>
</g>
<g>
	<g>
		<path d="M437,16c-34.171,0-25.957,0-60.383,0c6.634,8.763,11.592,18.847,13.865,30H452V31C452,22.709,445.291,16,437,16z" fill="#8891a1"/>
	</g>
</g>
<g>
	<g>
		<path d="M497,76H390.482c-6.969,34.191-37.266,60-73.482,60c-9.996,0-19.503-2.047-28.231-5.612L269.48,159.32    c-4.525,6.797-13.792,8.806-20.801,4.16c-6.899-4.6-8.76-13.901-4.16-20.801l19.276-28.912    C253.702,103.592,246.486,90.566,243.518,76H75c-8.291,0-15,6.709-15,15v390c0,8.291,6.709,15,15,15h287V361    c0-8.291,6.709-15,15-15h135V91C512,82.709,505.291,76,497,76z M227,406h-92c-8.291,0-15-6.709-15-15c0-8.291,6.709-15,15-15h92    c8.291,0,15,6.709,15,15C242,399.291,235.291,406,227,406z M287,406c-8.284,0-15-6.716-15-15c0-8.286,6.716-15,15-15    s15,6.714,15,15C302,399.284,295.284,406,287,406z M317,346H135c-8.291,0-15-6.709-15-15c0-8.291,6.709-15,15-15h182    c8.291,0,15,6.709,15,15C332,339.291,325.291,346,317,346z M437,286H135c-8.291,0-15-6.709-15-15c0-8.291,6.709-15,15-15h302    c8.291,0,15,6.709,15,15C452,279.291,445.291,286,437,286z M437,226H135c-8.291,0-15-6.709-15-15s6.709-15,15-15h302    c8.291,0,15,6.709,15,15S445.291,226,437,226z" fill="#8891a1"/>
	</g>
</g>
<g>
	<g>
		<path d="M392,375.999V376v119.037c16.276-2.141,31.386-9.212,43.184-21.01l54.844-54.844    c11.797-11.797,18.869-26.907,21.01-43.184H392z" fill="#8891a1"/>
	</g>
</g>
<g>
	<g>
		<path d="M317,16c-24.814,0-45,20.186-45,45c0,24.814,20.186,45,45,45c24.814,0,45-20.186,45-45C362,36.186,341.814,16,317,16z" fill="#8891a1"/>
	</g>
</g>
<g>
</g>
<g>
</g>
<g>
</g>
<g>
</g>
<g>
</g>
<g>
</g>
<g>
</g>
<g>
</g>
<g>
</g>
<g>
</g>
<g>
</g>
<g>
</g>
<g>
</g>
<g>
</g>
<g>
</g>
</svg>
