<?xml version="1.0"?>
<svg xmlns="http://www.w3.org/2000/svg" xmlns:xlink="http://www.w3.org/1999/xlink" version="1.1" id="Capa_1" x="0px" y="0px" viewBox="0 0 512 512" style="enable-background:new 0 0 512 512;" xml:space="preserve" width="512px" height="512px"><g><g>
	<g>
		<path d="M256,241c-24.814,0-45,20.186-45,45c0,24.814,20.186,45,45,45c24.814,0,45-20.186,45-45C301,261.186,280.814,241,256,241z     M256,301c-8.284,0-15-6.716-15-15s6.716-15,15-15s15,6.716,15,15S264.284,301,256,301z" data-original="#000000" class="active-path" data-old_color="#8891a1" fill="#8891a1"/>
	</g>
</g><g>
	<g>
		<path d="M45,0C20.186,0,0,21.186,0,46v15h121V0H45z" data-original="#000000" class="active-path" data-old_color="#8891a1" fill="#8891a1"/>
	</g>
</g><g>
	<g>
		<path d="M467,0H151v61h361V46C512,21.186,491.814,0,467,0z" data-original="#000000" class="active-path" data-old_color="#8891a1" fill="#8891a1"/>
	</g>
</g><g>
	<g>
		<path d="M0,91v376c0,24.814,20.186,45,45,45h422c24.814,0,45-20.186,45-45V91H0z M413.882,342.514l-30,51.973    c-1.963,3.442-5.244,5.962-9.111,6.987c-3.779,1.011-7.969,0.483-11.367-1.494l-19.775-11.426    c-12.422,10.532-26.895,18.779-42.627,24.302V437c0,8.291-6.709,15-15,15h-60c-8.291,0-15-6.709-15-15v-24.145    c-15.732-5.522-30.205-13.77-42.627-24.302L148.6,399.979c-3.428,1.978-7.559,2.505-11.367,1.494    c-3.867-1.025-7.148-3.545-9.111-6.987l-30-51.973c-4.16-7.178-1.699-16.348,5.479-20.493l20.01-11.543    C121.85,301.85,121,293.881,121,286c0-7.881,0.85-15.85,2.607-24.478l-20.01-11.543c-7.178-4.146-9.639-13.315-5.479-20.493    l30-51.973c1.963-3.442,5.244-5.962,9.111-6.987c3.809-1.025,7.939-0.469,11.367,1.494l19.775,11.426    c12.422-10.532,26.895-18.779,42.627-24.302V136c0-8.291,6.709-15,15-15h60c8.291,0,15,6.709,15,15v23.145    c15.732,5.522,30.205,13.77,42.627,24.302l19.775-11.426c3.398-1.963,7.588-2.52,11.367-1.494    c3.867,1.025,7.148,3.545,9.111,6.987l30,51.973c4.16,7.178,1.699,16.348-5.479,20.493l-20.01,11.543    C390.15,270.15,391,278.119,391,286c0,7.881-0.85,15.85-2.607,24.478l20.01,11.543    C415.581,326.167,418.042,335.336,413.882,342.514z" data-original="#000000" class="active-path" data-old_color="#8891a1" fill="#8891a1"/>
	</g>
</g><g>
	<g>
		<path d="M356.722,313.876C359.652,303.314,361,294.452,361,286c0-8.452-1.348-17.314-4.277-27.876    c-1.816-6.577,1.055-13.564,6.973-16.978l16.729-9.653l-15-25.986l-16.377,9.463c-5.918,3.398-13.389,2.402-18.193-2.49    c-13.037-13.257-29.854-22.837-48.604-27.715c-6.621-1.714-11.25-7.676-11.25-14.517V151h-30v19.248    c0,6.841-4.629,12.803-11.25,14.517c-18.75,4.878-35.566,14.458-48.604,27.715c-4.805,4.893-12.275,5.889-18.193,2.49    l-16.377-9.463l-15,25.986l16.729,9.653c5.918,3.413,8.789,10.4,6.973,16.978C152.348,268.686,151,277.548,151,286    c0,8.452,1.348,17.314,4.277,27.876c1.817,6.577-1.054,13.564-6.972,16.978l-16.729,9.653l15,25.986l16.377-9.463    c5.918-3.413,13.389-2.402,18.193,2.49c13.037,13.257,29.854,22.837,48.604,27.715c6.621,1.714,11.25,7.676,11.25,14.517V422h30    v-20.248c0-6.841,4.629-12.803,11.25-14.517c18.75-4.878,35.566-14.458,48.604-27.715c4.805-4.893,12.275-5.903,18.193-2.49    l16.377,9.463l15-25.986l-16.729-9.653C357.777,327.441,354.906,320.454,356.722,313.876z M256,361c-41.367,0-75-33.647-75-75    c0-41.353,33.633-75,75-75s75,33.647,75,75C331,327.353,297.367,361,256,361z" data-original="#000000" class="active-path" data-old_color="#8891a1" fill="#8891a1"/>
	</g>
</g></g> </svg>
